<?xml version="1.0" encoding="UTF-8"?>
<svg id="Layer_5" data-name="Layer 5" xmlns="http://www.w3.org/2000/svg" viewBox="0 0 1080 1080">
  <defs>
    <style>
      .cls-1 {
        fill: #fff;
        stroke-width: 0px;
      }
    </style>
  </defs>
  <g id="Logomark">
    <path class="cls-1" d="m612.89,395.66c-.97-26.71-15.93-49.8-37.78-62.2v108.22h39.59l-1.81-46.02Z"/>
    <path class="cls-1" d="m463.81,395.66l1.81,46.02h39.3v-110c-23.54,11.83-40.09,35.79-41.11,63.98Z"/>
    <path class="cls-1" d="m409.55,796.06c-41.16-.05-74.53-33.4-74.59-74.57v-205.15c.05-41.19,33.45-74.57,74.64-74.59h18.65l-1.81-46.02c0-50.16,33-92.61,78.48-106.82v-59.2c0-10.11-4.37-19.73-12-26.37-21.49-18.38-45.37-33.76-70.97-45.75-79.26-37.91-190.34-56.46-338.89-57.04-14.01-.19-27.74,3.89-39.37,11.71-19.36,13.09-30.96,34.94-30.94,58.31v628.61c-2.03,39.09,28.02,72.42,67.11,74.45,1.07.06,2.13.09,3.2.09,156.15,0,312.84,14.66,406.62,103.26,3.6,3.44,9.31,3.31,12.75-.29,1.62-1.7,2.52-3.96,2.5-6.31v-174.31h-95.37Z"/>
    <path class="cls-1" d="m1036.35,112.1h.12c-11.64-7.77-25.38-11.8-39.37-11.56-148.55.66-259.51,19.14-338.89,57.12-25.64,11.92-49.57,27.23-71.12,45.53-7.61,6.65-11.98,16.26-11.98,26.37v60.48c43.73,15.21,75.13,56.77,75.13,105.69l1.76,45.95h18.65c41.2.05,74.58,33.46,74.59,74.67v205.13c-.05,41.17-33.42,74.54-74.59,74.59h-95.54v174.31c-.01,4.76,3.84,8.64,8.61,8.65,2.26,0,4.44-.88,6.06-2.46,56.41-56.02,155.39-102.87,407.28-102.85,38.83,0,70.32-31.48,70.32-70.32V170.56c.05-23.44-11.58-45.36-31.02-58.46Z"/>
    <polygon class="cls-1" points="515.26 689.37 456.2 630.31 474.4 612.1 515.26 652.96 605.6 562.62 623.8 580.82 515.26 689.37"/>
  </g>
</svg>