<?xml version="1.0" encoding="UTF-8"?>
<svg id="Layer_4" data-name="Layer 4" xmlns="http://www.w3.org/2000/svg" viewBox="0 0 721.42 128.81">
  <defs>
    <style>
      .cls-1 {
        fill: #fff;
        stroke-width: 0px;
      }
    </style>
  </defs>
  <g id="Logomark">
    <path class="cls-1" d="m646.18,46.83c-.12-3.25-1.94-6.06-4.6-7.57v13.18h4.82l-.22-5.6Z"/>
    <path class="cls-1" d="m628.03,46.83l.22,5.6h4.78v-13.39c-2.87,1.44-4.88,4.36-5,7.79Z"/>
    <path class="cls-1" d="m621.42,95.58c-5.01,0-9.07-4.07-9.08-9.08v-24.98c0-5.02,4.07-9.08,9.09-9.08h2.27l-.22-5.6c0-6.11,4.02-11.27,9.55-13.01v-7.21c0-1.23-.53-2.4-1.46-3.21-2.62-2.24-5.52-4.11-8.64-5.57-9.65-4.62-23.17-6.87-41.26-6.94-1.71-.02-3.38.47-4.79,1.43-2.36,1.59-3.77,4.25-3.77,7.1v76.53c-.25,4.76,3.41,8.82,8.17,9.06.13,0,.26.01.39.01,19.01,0,38.09,1.79,49.5,12.57.44.42,1.13.4,1.55-.03.2-.21.31-.48.3-.77v-21.22h-11.61Z"/>
    <path class="cls-1" d="m697.73,12.31h.01c-1.42-.95-3.09-1.44-4.79-1.41-18.09.08-31.59,2.33-41.26,6.95-3.12,1.45-6.03,3.32-8.66,5.54-.93.81-1.46,1.98-1.46,3.21v7.36c5.32,1.85,9.15,6.91,9.15,12.87l.21,5.59h2.27c5.02,0,9.08,4.07,9.08,9.09v24.97c0,5.01-4.07,9.07-9.08,9.08h-11.63v21.22c0,.58.47,1.05,1.05,1.05.28,0,.54-.11.74-.3,6.87-6.82,18.92-12.52,49.58-12.52,4.73,0,8.56-3.83,8.56-8.56V19.43c0-2.85-1.41-5.52-3.78-7.12Z"/>
    <polygon class="cls-1" points="634.29 82.59 627.1 75.4 629.31 73.18 634.29 78.16 645.29 67.16 647.5 69.38 634.29 82.59"/>
  </g>
  <g>
    <path class="cls-1" d="m32.07,74s8.01,7.32,16.91,7.32c3.56,0,7.41-1.38,7.41-5.64,0-8.4-31.83-8.11-31.83-29.86,0-13.05,10.97-21.65,25.01-21.65,15.22,0,22.74,8.01,22.74,8.01l-7.32,14.14s-7.12-6.23-15.62-6.23c-3.56,0-7.51,1.58-7.51,5.54,0,8.9,31.83,7.32,31.83,29.66,0,11.76-9,21.95-24.91,21.95s-25.8-10.08-25.8-10.08l9.1-13.15Z"/>
    <path class="cls-1" d="m86.93,59.36h-6.52v-13.35h7.02v-14.63h16.61v14.63h10.68v13.35h-10.68v15.62c0,5.73,5.83,6.52,9.1,6.52,1.38,0,2.27-.1,2.27-.1v14.83s-1.88.3-4.65.3c-8.11,0-23.83-2.17-23.83-19.28v-17.89Z"/>
    <path class="cls-1" d="m151.9,43.94c16.11,0,28.97,10.78,28.97,26.79s-12.85,26.5-28.87,26.5-28.87-10.58-28.87-26.5,12.85-26.79,28.77-26.79Zm.1,39.05c6.23,0,11.57-4.65,11.57-12.26s-5.34-12.56-11.57-12.56-11.57,4.84-11.57,12.56,5.34,12.26,11.57,12.26Z"/>
    <path class="cls-1" d="m191.83,45.13h16.41v8.6c0,1.68-.2,3.16-.2,3.16h.2c2.17-6.92,8.6-12.65,16.21-12.65.99,0,1.98.2,1.98.2v16.81s-1.38-.3-3.46-.3c-4.05,0-10.68,1.29-13.15,8.9-.59,1.88-.89,4.15-.89,6.92v19.28h-17.1v-50.91Z"/>
    <path class="cls-1" d="m238.87,100.69s2.77,1.88,5.24,1.88c2.77,0,6.43-.79,8.21-5.14l.99-2.37-21.65-49.92h19.38l7.51,23.43c.89,2.77,1.88,7.91,1.88,7.91h.2s.99-4.84,1.68-7.61l6.43-23.73h18.68l-20.86,56.35c-4.25,11.37-13.15,15.32-21.25,15.32-6.72,0-11.86-3.56-11.86-3.56l5.44-12.56Z"/>
    <path class="cls-1" d="m330.02,74s8.01,7.32,16.91,7.32c3.56,0,7.41-1.38,7.41-5.64,0-8.4-31.83-8.11-31.83-29.86,0-13.05,10.97-21.65,25.01-21.65,15.22,0,22.74,8.01,22.74,8.01l-7.32,14.14s-7.12-6.23-15.62-6.23c-3.56,0-7.51,1.58-7.51,5.54,0,8.9,31.83,7.32,31.83,29.66,0,11.76-9,21.95-24.91,21.95s-25.8-10.08-25.8-10.08l9.1-13.15Z"/>
    <path class="cls-1" d="m409.51,64.31h.69v-.89c0-4.25-3.26-5.63-7.51-5.63-6.43,0-13.74,4.84-13.74,4.84l-5.93-12.06s8.8-6.62,21.35-6.62c14.33,0,22.94,7.81,22.94,20.76v31.34h-15.62v-3.06c0-1.68.2-3.16.2-3.16h-.2s-3.76,7.42-14.43,7.42c-9.49,0-17.3-6.33-17.3-16.41,0-14.83,21.65-16.51,29.56-16.51Zm-7.51,19.87c4.45,0,8.4-4.84,8.4-9v-1.09h-1.58c-5.44,0-11.67,1.58-11.67,5.83,0,2.37,1.48,4.25,4.84,4.25Z"/>
    <path class="cls-1" d="m443.53,59.36h-6.23v-13.35h6.23v-2.08c0-16.71,15.13-18.98,23.33-18.98,3.06,0,5.14.3,5.14.3v14.43s-1.19-.2-2.77-.2c-3.36,0-8.6.59-8.6,4.94v1.58h9.39v13.35h-9.39v36.68h-17.1v-36.68Z"/>
    <path class="cls-1" d="m502.95,43.94c15.03,0,23.53,10.48,23.53,24.62,0,1.68-.4,5.34-.4,5.34h-32.13c1.29,6.23,6.43,9.1,11.86,9.1,7.32,0,14.04-5.14,14.04-5.14l6.33,11.96s-8.21,7.42-21.75,7.42c-18.19,0-27.98-13.15-27.98-26.69,0-14.93,10.08-26.59,26.49-26.59Zm6.33,20.17c0-3.86-2.67-7.32-6.72-7.32-4.94,0-7.32,3.56-8.21,7.32h14.93Z"/>
  </g>
</svg>