<?xml version="1.0" encoding="UTF-8"?>
<svg id="Layer_3" data-name="Layer 3" xmlns="http://www.w3.org/2000/svg" viewBox="0 0 1080 1080">
  <defs>
    <style>
      .cls-1 {
        fill: #fff;
        stroke-width: 0px;
      }
    </style>
  </defs>
  <g id="Vertical_Combination_Mark" data-name="Vertical Combination Mark">
    <g>
      <path class="cls-1" d="m54.95,895.71s15.87,14.5,33.5,14.5c7.05,0,14.69-2.74,14.69-11.17,0-16.65-63.09-16.07-63.09-59.17,0-25.86,21.75-42.91,49.57-42.91,30.17,0,45.06,15.87,45.06,15.87l-14.5,28.02s-14.11-12.34-30.96-12.34c-7.05,0-14.89,3.13-14.89,10.97,0,17.63,63.09,14.5,63.09,58.78,0,23.31-17.83,43.49-49.37,43.49s-51.14-19.98-51.14-19.98l18.03-26.06Z"/>
      <path class="cls-1" d="m163.67,866.71h-12.93v-26.45h13.91v-29h32.92v29h21.16v26.45h-21.16v30.96c0,11.36,11.56,12.93,18.03,12.93,2.74,0,4.51-.2,4.51-.2v29.39s-3.72.59-9.21.59c-16.07,0-47.22-4.31-47.22-38.21v-35.46Z"/>
      <path class="cls-1" d="m292.41,836.15c31.94,0,57.41,21.36,57.41,53.1s-25.47,52.51-57.21,52.51-57.21-20.96-57.21-52.51,25.47-53.1,57.01-53.1Zm.2,77.39c12.34,0,22.92-9.21,22.92-24.29s-10.58-24.88-22.92-24.88-22.92,9.6-22.92,24.88,10.58,24.29,22.92,24.29Z"/>
      <path class="cls-1" d="m371.54,838.5h32.52v17.05c0,3.33-.39,6.27-.39,6.27h.39c4.31-13.71,17.04-25.08,32.13-25.08,1.96,0,3.92.39,3.92.39v33.31s-2.74-.59-6.86-.59c-8.03,0-21.16,2.55-26.06,17.63-1.18,3.72-1.76,8.23-1.76,13.71v38.21h-33.89v-100.9Z"/>
      <path class="cls-1" d="m464.77,948.61s5.49,3.72,10.38,3.72c5.49,0,12.74-1.57,16.26-10.19l1.96-4.7-42.91-98.94h38.4l14.89,46.43c1.76,5.49,3.72,15.67,3.72,15.67h.39s1.96-9.6,3.33-15.09l12.74-47.02h37.03l-41.34,111.68c-8.42,22.53-26.06,30.37-42.12,30.37-13.32,0-23.51-7.05-23.51-7.05l10.78-24.88Z"/>
      <path class="cls-1" d="m645.41,895.71s15.87,14.5,33.5,14.5c7.05,0,14.69-2.74,14.69-11.17,0-16.65-63.09-16.07-63.09-59.17,0-25.86,21.75-42.91,49.57-42.91,30.17,0,45.06,15.87,45.06,15.87l-14.5,28.02s-14.11-12.34-30.96-12.34c-7.05,0-14.89,3.13-14.89,10.97,0,17.63,63.09,14.5,63.09,58.78,0,23.31-17.83,43.49-49.37,43.49s-51.14-19.98-51.14-19.98l18.03-26.06Z"/>
      <path class="cls-1" d="m802.93,876.51h1.37v-1.76c0-8.42-6.47-11.17-14.89-11.17-12.73,0-27.23,9.6-27.23,9.6l-11.75-23.9s17.44-13.13,42.32-13.13c28.41,0,45.45,15.48,45.45,41.14v62.11h-30.96v-6.07c0-3.33.39-6.27.39-6.27h-.39s-7.45,14.69-28.6,14.69c-18.81,0-34.29-12.54-34.29-32.52,0-29.39,42.91-32.72,58.58-32.72Zm-14.89,39.38c8.82,0,16.65-9.6,16.65-17.83v-2.16h-3.13c-10.78,0-23.12,3.13-23.12,11.56,0,4.7,2.94,8.42,9.6,8.42Z"/>
      <path class="cls-1" d="m870.35,866.71h-12.34v-26.45h12.34v-4.11c0-33.11,29.98-37.62,46.24-37.62,6.07,0,10.19.59,10.19.59v28.6s-2.35-.39-5.49-.39c-6.66,0-17.05,1.18-17.05,9.8v3.13h18.61v26.45h-18.61v72.69h-33.89v-72.69Z"/>
      <path class="cls-1" d="m988.1,836.15c29.78,0,46.63,20.77,46.63,48.78,0,3.33-.78,10.58-.78,10.58h-63.67c2.55,12.34,12.73,18.02,23.51,18.02,14.5,0,27.82-10.19,27.82-10.19l12.54,23.71s-16.26,14.69-43.1,14.69c-36.05,0-55.45-26.06-55.45-52.9,0-29.58,19.98-52.7,52.51-52.7Zm12.54,39.97c0-7.64-5.29-14.5-13.32-14.5-9.8,0-14.5,7.05-16.26,14.5h29.58Z"/>
    </g>
    <g id="Logomark">
      <path class="cls-1" d="m595.85,325.57c-.74-20.47-12.21-38.15-28.95-47.65v82.91h30.33l-1.39-35.26Z"/>
      <path class="cls-1" d="m481.62,325.57l1.39,35.26h30.11v-84.28c-18.04,9.07-30.71,27.42-31.5,49.02Z"/>
      <path class="cls-1" d="m440.05,632.34c-31.54-.04-57.1-25.59-57.15-57.13v-157.18c.04-31.56,25.63-57.13,57.19-57.15h14.29l-1.39-35.26c0-38.43,25.29-70.95,60.13-81.84v-45.36c0-7.75-3.35-15.12-9.19-20.2-16.47-14.08-34.76-25.87-54.38-35.05-60.73-29.04-145.83-43.25-259.64-43.7-10.73-.15-21.26,2.98-30.17,8.97-14.84,10.03-23.72,26.77-23.71,44.68v481.61c-1.55,29.95,21.47,55.49,51.42,57.04.82.04,1.63.07,2.45.07,119.63,0,239.68,11.24,311.53,79.11,2.76,2.64,7.13,2.54,9.77-.22,1.24-1.3,1.93-3.04,1.92-4.84v-133.55h-73.07Z"/>
      <path class="cls-1" d="m920.28,108.32h.09c-8.92-5.95-19.44-9.04-30.17-8.86-113.81.51-198.82,14.66-259.64,43.76-19.65,9.13-37.98,20.86-54.49,34.88-5.83,5.09-9.18,12.46-9.18,20.2v46.34c33.51,11.66,57.56,43.5,57.56,80.97l1.35,35.2h14.29c31.57.04,57.14,25.64,57.15,57.21v157.16c-.04,31.55-25.6,57.11-57.15,57.15h-73.2v133.55c0,3.65,2.94,6.62,6.59,6.63,1.73,0,3.4-.67,4.64-1.89,43.22-42.92,119.05-78.81,312.03-78.8,29.75,0,53.87-24.12,53.87-53.87V153.11c.04-17.96-8.87-34.75-23.76-44.79Z"/>
      <polygon class="cls-1" points="521.04 550.6 475.79 505.35 489.74 491.4 521.04 522.7 590.26 453.49 604.21 467.43 521.04 550.6"/>
    </g>
  </g>
</svg>